<svg xmlns="http://www.w3.org/2000/svg" width="128" height="128" viewBox="0 0 128 128" fill="none">
<!--
    MIT License

    Copyright (c) Microsoft Corporation.

    Permission is hereby granted, free of charge, to any person obtaining a copy
    of this software and associated documentation files (the "Software"), to deal
    in the Software without restriction, including without limitation the rights
    to use, copy, modify, merge, publish, distribute, sublicense, and/or sell
    copies of the Software, and to permit persons to whom the Software is
    furnished to do so, subject to the following conditions:

    The above copyright notice and this permission notice shall be included in all
    copies or substantial portions of the Software.

    THE SOFTWARE IS PROVIDED "AS IS", WITHOUT WARRANTY OF ANY KIND, EXPRESS OR
    IMPLIED, INCLUDING BUT NOT LIMITED TO THE WARRANTIES OF MERCHANTABILITY,
    FITNESS FOR A PARTICULAR PURPOSE AND NONINFRINGEMENT. IN NO EVENT SHALL THE
    AUTHORS OR COPYRIGHT HOLDERS BE LIABLE FOR ANY CLAIM, DAMAGES OR OTHER
    LIABILITY, WHETHER IN AN ACTION OF CONTRACT, TORT OR OTHERWISE, ARISING FROM,
    OUT OF OR IN CONNECTION WITH THE SOFTWARE OR THE USE OR OTHER DEALINGS IN THE
    SOFTWARE

-->
<g transform="translate(12.000000 12.000000) scale(3.250000)"><path d="M12.5 27.5C12.9484 28.9419 14.3375 30 16 30C17.6625 30 19.0516 28.9419 19.5 27.5H12.5Z" fill="#FF822D" />
<path d="M16 6.55C15.31 6.55 14.75 5.99 14.75 5.3V3.25C14.75 2.56 15.31 2 16 2C16.69 2 17.25 2.56 17.25 3.25V5.3C17.25 5.99 16.69 6.55 16 6.55Z" fill="#FFB02E" />
<path d="M27.6 22.8428C26.64 22.0702 26.06 20.9164 25.82 19.6923L24.09 10.7926C23.32 6.8495 19.94 4.01003 16 4C12.06 4.01003 8.68 6.8495 7.91 10.7926L6.18 19.6923C5.94 20.9164 5.36 22.0702 4.4 22.8428C3.55 23.5351 3 24.5886 3 25.7926V27.0268C3 27.5686 3.43 28 3.95 28H16H28.05C28.58 28 29 27.5686 29 27.0268V25.7926C29 24.5886 28.45 23.5351 27.6 22.8428Z" fill="#F9C23C" />
</g></svg>
